<?xml version="1.0" encoding="utf-8"?>
<svg viewBox="26.517 66.272 233.944 357.985" xmlns="http://www.w3.org/2000/svg">
  <path style="stroke: rgb(60, 84, 34); stroke-width: 4px; fill: rgb(192, 245, 108);" d="M 114.446 66.552 C 51.584 73.443 29.011 137.341 27.007 245.419 C 25.003 353.497 52.269 409.819 109.597 422.347 C 166.925 434.875 266.088 384.052 260.211 321.139 C 254.334 258.226 240.887 253.098 213.253 190.37 C 185.619 127.642 161.179 61.429 114.446 66.552 Z"/>
  <path style="fill: rgb(60, 84, 34);" d="M 114.8 66.867 C 114.8 66.867 26.125 81.266 64.739 252.908 C 103.353 424.55 180.351 413.506 180.351 413.506 C 180.351 413.506 59.755 470.002 30.72 318.084 C 3.827 57.33 114.8 66.867 114.8 66.867 Z"/>
  <path d="M 214.96 255.168 C 224.271 295.571 199.024 346.35 177.148 346.35 C 155.271 346.35 129.534 314.888 120.877 272.236 C 112.22 229.584 128.811 180.449 150.687 180.449 C 172.563 180.449 205.65 214.765 214.96 255.168 Z" style="fill: rgb(156, 103, 18);"/>
</svg>