<?xml version="1.0" encoding="utf-8"?>
<svg viewBox="90.372 163.283 186.551 61.35" xmlns="http://www.w3.org/2000/svg">
  <path d="M 107.53997039794922 205.1222381591797 Q 107.44231414794922 205.3761444091797 107.35442352294922 205.6105194091797 Q 107.26653289794922 205.8448944091797 107.12981414794922 206.0402069091797 Q 106.99309539794922 206.2355194091797 106.78801727294922 206.3917694091797 Q 106.58293914794922 206.5480194091797 106.27043914794922 206.6456756591797 Q 105.03997039794922 207.0363006591797 103.82903289794922 207.3195037841797 Q 102.61809539794922 207.6027069091797 101.38762664794922 208.0128631591797 Q 101.15325164794922 208.0909881591797 100.97747039794922 208.1300506591797 Q 100.80168914794922 208.1691131591797 100.64543914794922 208.1691131591797 Q 100.29387664794922 208.1691131591797 100.13762664794922 207.9933319091797 Q 99.98137664794922 207.8175506591797 99.90325164794922 207.5441131591797 L 93.22356414794922 180.9816131591797 Q 93.06731414794922 180.4738006591797 93.06731414794922 180.1417694091797 Q 93.06731414794922 179.7120819091797 93.34075164794922 179.4288787841797 Q 93.61418914794922 179.1456756591797 94.22942352294922 178.9601287841797 Q 94.84465789794922 178.7745819091797 95.81145477294922 178.6183319091797 Q 96.77825164794922 178.4620819091797 98.18450164794922 178.2667694091797 Q 98.86809539794922 178.1691131591797 99.33684539794922 178.1202850341797 Q 99.80559539794922 178.0714569091797 100.13762664794922 178.0714569091797 Q 100.70403289794922 178.0714569091797 100.88957977294922 178.2570037841797 Q 101.07512664794922 178.4425506591797 101.23137664794922 178.8331756591797 L 104.96184539794922 194.9659881591797 L 110.21575164794922 180.1417694091797 Q 110.33293914794922 179.8292694091797 110.42082977294922 179.6339569091797 Q 110.50872039794922 179.4386444091797 110.75286102294922 179.2921600341797 Q 110.99700164794922 179.1456756591797 111.49504852294922 178.9991912841797 Q 111.99309539794922 178.8527069091797 112.93059539794922 178.6573944091797 Q 114.39543914794922 178.3448944091797 115.35247039794922 178.2081756591797 Q 116.30950164794922 178.0714569091797 116.89543914794922 178.0714569091797 Q 117.63762664794922 178.0714569091797 117.86223602294922 178.2472381591797 Q 118.08684539794922 178.4230194091797 118.08684539794922 178.7550506591797 Q 118.10637664794922 178.8917694091797 118.03801727294922 179.0382537841797 Q 117.96965789794922 179.1847381591797 117.89153289794922 179.3995819091797 Z M 127.75650024414062 185.0441131591797 Q 129.61196899414062 185.0441131591797 131.12564086914062 185.7374725341797 Q 132.63931274414062 186.4308319091797 133.72329711914062 187.5343475341797 Q 134.80728149414062 188.6378631591797 135.39321899414062 190.0050506591797 Q 135.97915649414062 191.3722381591797 135.97915649414062 192.7394256591797 Q 135.97915649414062 193.9503631591797 135.23696899414062 195.1710662841797 Q 134.49478149414062 196.3917694091797 133.15689086914062 197.3683319091797 Q 131.81900024414062 198.3448944091797 129.94400024414062 198.9503631591797 Q 128.06900024414062 199.5558319091797 125.82290649414062 199.5558319091797 Q 124.65103149414062 199.5558319091797 123.36196899414062 199.3214569091797 Q 123.44009399414062 200.1613006591797 123.85025024414062 200.7667694091797 Q 124.26040649414062 201.3722381591797 124.88540649414062 201.7628631591797 Q 125.51040649414062 202.1534881591797 126.30142211914062 202.3390350341797 Q 127.09243774414062 202.5245819091797 127.93228149414062 202.5245819091797 Q 128.86978149414062 202.5245819091797 129.73892211914062 202.3585662841797 Q 130.60806274414062 202.1925506591797 131.40884399414062 201.9191131591797 Q 132.20962524414062 201.6456756591797 132.95181274414062 201.3136444091797 Q 133.69400024414062 200.9816131591797 134.35806274414062 200.6495819091797 Q 134.53384399414062 200.6105194091797 134.66079711914062 200.5812225341797 Q 134.78775024414062 200.5519256591797 134.90493774414062 200.5519256591797 Q 134.90493774414062 200.5519256591797 134.89517211914062 200.8644256591797 Q 134.88540649414062 201.1769256591797 134.88540649414062 201.7433319091797 Q 134.88540649414062 202.3097381591797 134.87564086914062 203.1105194091797 Q 134.86587524414062 203.9113006591797 134.84634399414062 204.8878631591797 Q 134.90493774414062 204.9855194091797 134.92446899414062 205.0831756591797 Q 134.94400024414062 205.1808319091797 134.94400024414062 205.2394256591797 Q 134.94400024414062 205.4738006591797 134.51431274414062 205.7472381591797 Q 134.08462524414062 206.0206756591797 133.39126586914062 206.3136444091797 Q 132.69790649414062 206.6066131591797 131.80923461914062 206.8800506591797 Q 130.92056274414062 207.1534881591797 130.00259399414062 207.3780975341797 Q 129.08462524414062 207.6027069091797 128.22525024414062 207.7296600341797 Q 127.36587524414062 207.8566131591797 126.72134399414062 207.8566131591797 Q 124.61196899414062 207.8566131591797 122.62954711914062 207.1241912841797 Q 120.64712524414062 206.3917694091797 119.11392211914062 205.0245819091797 Q 117.58071899414062 203.6573944091797 116.66275024414062 201.7042694091797 Q 115.74478149414062 199.7511444091797 115.74478149414062 197.3097381591797 Q 115.74478149414062 194.7511444091797 116.62368774414062 192.5148162841797 Q 117.50259399414062 190.2784881591797 119.09439086914062 188.6183319091797 Q 120.68618774414062 186.9581756591797 122.89321899414062 186.0011444091797 Q 125.10025024414062 185.0441131591797 127.75650024414062 185.0441131591797 Z M 127.52212524414062 190.2394256591797 Q 126.72134399414062 190.2394256591797 126.04751586914062 190.5812225341797 Q 125.37368774414062 190.9230194091797 124.81704711914062 191.5577850341797 Q 124.26040649414062 192.1925506591797 123.85025024414062 193.0812225341797 Q 123.44009399414062 193.9698944091797 123.18618774414062 195.0441131591797 Q 125.19790649414062 194.6925506591797 126.52603149414062 194.3019256591797 Q 127.85415649414062 193.9113006591797 128.65493774414062 193.5109100341797 Q 129.45571899414062 193.1105194091797 129.78775024414062 192.7101287841797 Q 130.11978149414062 192.3097381591797 130.11978149414062 191.9386444091797 Q 130.11978149414062 191.5870819091797 129.85610961914062 191.2745819091797 Q 129.59243774414062 190.9620819091797 129.20181274414062 190.7277069091797 Q 128.81118774414062 190.4933319091797 128.35220336914062 190.3663787841797 Q 127.89321899414062 190.2394256591797 127.52212524414062 190.2394256591797 Z M 152.65428161621094 192.9152069091797 Q 152.45896911621094 192.4659881591797 152.11717224121094 191.9972381591797 Q 151.77537536621094 191.5284881591797 151.32615661621094 191.1378631591797 Q 150.87693786621094 190.7472381591797 150.34959411621094 190.5030975341797 Q 149.82225036621094 190.2589569091797 149.23631286621094 190.2589569091797 Q 148.43553161621094 190.2589569091797 147.73240661621094 190.9230194091797 Q 147.02928161621094 191.5870819091797 146.50193786621094 192.6905975341797 Q 145.97459411621094 193.7941131591797 145.67185974121094 195.2101287841797 Q 145.36912536621094 196.6261444091797 145.36912536621094 198.1495819091797 Q 145.36912536621094 199.0870819091797 145.53514099121094 199.9171600341797 Q 145.70115661621094 200.7472381591797 146.05271911621094 201.3722381591797 Q 146.40428161621094 201.9972381591797 146.96092224121094 202.3683319091797 Q 147.51756286621094 202.7394256591797 148.29881286621094 202.7394256591797 Q 149.47068786621094 202.7394256591797 150.44725036621094 202.0070037841797 Q 151.42381286621094 201.2745819091797 152.10740661621094 200.1027069091797 Q 152.12693786621094 199.6925506591797 152.16600036621094 199.1261444091797 Q 152.20506286621094 198.5597381591797 152.26365661621094 197.7491912841797 Q 152.32225036621094 196.9386444091797 152.41014099121094 195.8351287841797 Q 152.49803161621094 194.7316131591797 152.63475036621094 193.2081756591797 Z M 159.11912536621094 204.7120819091797 Q 158.92381286621094 206.6456756591797 158.24021911621094 208.3253631591797 Q 157.55662536621094 210.0050506591797 156.51170349121094 211.4015350341797 Q 155.46678161621094 212.7980194091797 154.12889099121094 213.9015350341797 Q 152.79100036621094 215.0050506591797 151.29685974121094 215.7667694091797 Q 149.80271911621094 216.5284881591797 148.22068786621094 216.9288787841797 Q 146.63865661621094 217.3292694091797 145.09568786621094 217.3292694091797 Q 144.27537536621094 217.3292694091797 143.41600036621094 217.2706756591797 Q 142.55662536621094 217.2120819091797 141.73631286621094 217.0460662841797 Q 140.91600036621094 216.8800506591797 140.17381286621094 216.5773162841797 Q 139.43162536621094 216.2745819091797 138.84568786621094 215.8058319091797 L 138.84568786621094 215.7863006591797 Q 138.84568786621094 215.6886444091797 138.99217224121094 215.1027069091797 Q 139.13865661621094 214.5167694091797 139.34373474121094 213.7257537841797 Q 139.54881286621094 212.9347381591797 139.77342224121094 212.0948944091797 Q 139.99803161621094 211.2550506591797 140.15428161621094 210.6495819091797 Q 140.23240661621094 210.3761444091797 140.31053161621094 210.2784881591797 Q 140.38865661621094 210.1808319091797 140.48631286621094 210.1808319091797 Q 140.60350036621094 210.1808319091797 140.62303161621094 210.2003631591797 Q 141.18943786621094 210.5714569091797 141.68748474121094 210.8155975341797 Q 142.18553161621094 211.0597381591797 142.74217224121094 211.2062225341797 Q 143.29881286621094 211.3527069091797 143.96287536621094 211.4113006591797 Q 144.62693786621094 211.4698944091797 145.50584411621094 211.4698944091797 Q 146.87303161621094 211.4698944091797 147.92771911621094 210.9425506591797 Q 148.98240661621094 210.4152069091797 149.74412536621094 209.5753631591797 Q 150.50584411621094 208.7355194091797 150.96482849121094 207.7296600341797 Q 151.42381286621094 206.7238006591797 151.59959411621094 205.7472381591797 Q 150.19334411621094 206.6847381591797 148.74803161621094 207.2706756591797 Q 147.30271911621094 207.8566131591797 145.83787536621094 207.8566131591797 Q 143.82615661621094 207.8566131591797 142.36131286621094 207.0460662841797 Q 140.89646911621094 206.2355194091797 139.93943786621094 204.8683319091797 Q 138.98240661621094 203.5011444091797 138.52342224121094 201.7335662841797 Q 138.06443786621094 199.9659881591797 138.06443786621094 198.0323944091797 Q 138.06443786621094 196.5089569091797 138.34764099121094 194.9562225341797 Q 138.63084411621094 193.4034881591797 139.18748474121094 191.9581756591797 Q 139.74412536621094 190.5128631591797 140.56443786621094 189.2530975341797 Q 141.38475036621094 187.9933319091797 142.45896911621094 187.0558319091797 Q 143.53318786621094 186.1183319091797 144.84178161621094 185.5812225341797 Q 146.15037536621094 185.0441131591797 147.69334411621094 185.0441131591797 Q 149.37303161621094 185.0441131591797 150.80857849121094 185.7863006591797 Q 152.24412536621094 186.5284881591797 153.41600036621094 187.6222381591797 Q 153.45506286621094 187.2706756591797 153.47459411621094 187.0655975341797 Q 153.49412536621094 186.8605194091797 153.57225036621094 186.7433319091797 Q 153.65037536621094 186.6261444091797 153.83592224121094 186.5675506591797 Q 154.02146911621094 186.5089569091797 154.37303161621094 186.4308319091797 Q 154.58787536621094 186.3917694091797 155.15428161621094 186.2648162841797 Q 155.72068786621094 186.1378631591797 156.50193786621094 185.9620819091797 Q 157.28318786621094 185.7863006591797 158.22068786621094 185.5909881591797 Q 159.15818786621094 185.3956756591797 160.11521911621094 185.1808319091797 Q 160.34959411621094 185.1222381591797 160.54490661621094 185.1222381591797 Q 161.15037536621094 185.1222381591797 161.15037536621094 185.9034881591797 Q 161.15037536621094 186.0011444091797 161.15037536621094 186.0890350341797 Q 161.15037536621094 186.1769256591797 161.13084411621094 186.2745819091797 Z M 197.31069946289062 186.5480194091797 Q 197.29116821289062 188.2277069091797 196.98843383789062 189.5558319091797 Q 196.68569946289062 190.8839569091797 196.12905883789062 191.9484100341797 Q 195.57241821289062 193.0128631591797 194.78140258789062 193.8624725341797 Q 193.99038696289062 194.7120819091797 192.97476196289062 195.4542694091797 Q 191.02163696289062 196.8605194091797 188.69741821289062 197.5734100341797 Q 186.37319946289062 198.2863006591797 184.02944946289062 198.2863006591797 Q 183.63882446289062 198.2863006591797 183.25796508789062 198.2667694091797 Q 182.87710571289062 198.2472381591797 182.48648071289062 198.2081756591797 L 181.84194946289062 205.3370819091797 L 181.50991821289062 205.9425506591797 Q 181.47085571289062 206.0206756591797 180.84585571289062 206.2550506591797 Q 180.22085571289062 206.4894256591797 179.28335571289062 206.8019256591797 L 178.05288696289062 207.2120819091797 Q 177.46694946289062 207.4269256591797 177.01773071289062 207.6027069091797 Q 176.56851196289062 207.7784881591797 176.17788696289062 207.9152069091797 Q 175.78726196289062 208.0519256591797 175.41616821289062 208.1202850341797 Q 175.04507446289062 208.1886444091797 174.63491821289062 208.1886444091797 Q 174.36148071289062 208.1886444091797 174.20523071289062 208.0519256591797 Q 174.04898071289062 207.9152069091797 174.04898071289062 207.5245819091797 L 174.26382446289062 204.1847381591797 Q 174.32241821289062 203.1886444091797 174.41030883789062 202.1827850341797 Q 174.49819946289062 201.1769256591797 174.57632446289062 199.8878631591797 L 174.94741821289062 195.2198944091797 Q 175.06460571289062 193.7941131591797 175.16226196289062 192.3683319091797 Q 175.25991821289062 190.9425506591797 175.35757446289062 189.6534881591797 Q 175.45523071289062 188.3644256591797 175.53335571289062 187.2413787841797 Q 175.61148071289062 186.1183319091797 175.67007446289062 185.2784881591797 Q 174.61538696289062 185.5128631591797 173.98062133789062 185.6202850341797 Q 173.34585571289062 185.7277069091797 173.01382446289062 185.7277069091797 Q 172.60366821289062 185.7277069091797 172.60366821289062 185.3761444091797 Q 172.87710571289062 184.4191131591797 173.11148071289062 183.5011444091797 Q 173.32632446289062 182.7198944091797 173.55093383789062 181.8898162841797 Q 173.77554321289062 181.0597381591797 173.93179321289062 180.4933319091797 Q 174.02944946289062 180.1417694091797 174.15640258789062 179.9562225341797 Q 174.28335571289062 179.7706756591797 174.48843383789062 179.6632537841797 Q 174.69351196289062 179.5558319091797 175.01577758789062 179.4679412841797 Q 175.33804321289062 179.3800506591797 175.80679321289062 179.2238006591797 Q 176.17788696289062 179.1066131591797 176.85171508789062 178.9601287841797 Q 177.52554321289062 178.8136444091797 178.39468383789062 178.6671600341797 Q 179.26382446289062 178.5206756591797 180.27944946289062 178.3839569091797 Q 181.29507446289062 178.2472381591797 182.33999633789062 178.1398162841797 Q 183.38491821289062 178.0323944091797 184.40054321289062 177.9640350341797 Q 185.41616821289062 177.8956756591797 186.31460571289062 177.8956756591797 Q 188.54116821289062 177.8956756591797 190.53335571289062 178.3058319091797 Q 192.52554321289062 178.7159881591797 194.02944946289062 179.7023162841797 Q 195.53335571289062 180.6886444091797 196.42202758789062 182.3585662841797 Q 197.31069946289062 184.0284881591797 197.31069946289062 186.5480194091797 Z M 183.03335571289062 192.4073944091797 Q 183.03335571289062 192.6222381591797 183.11148071289062 192.7882537841797 Q 183.18960571289062 192.9542694091797 183.54116821289062 192.9542694091797 Q 184.08804321289062 192.9542694091797 184.83999633789062 192.7101287841797 Q 185.59194946289062 192.4659881591797 186.34390258789062 191.9777069091797 Q 187.09585571289062 191.4894256591797 187.74038696289062 190.7667694091797 Q 188.38491821289062 190.0441131591797 188.71694946289062 189.0675506591797 Q 188.85366821289062 188.6769256591797 188.94155883789062 188.0714569091797 Q 189.02944946289062 187.4659881591797 189.02944946289062 186.6456756591797 Q 189.02944946289062 185.2784881591797 188.08218383789062 184.6339569091797 Q 187.13491821289062 183.9894256591797 185.61148071289062 183.9894256591797 Q 185.35757446289062 183.9894256591797 185.03530883789062 184.0187225341797 Q 184.71304321289062 184.0480194091797 184.42984008789062 184.1261444091797 Q 184.14663696289062 184.2042694091797 183.95132446289062 184.3116912841797 Q 183.75601196289062 184.4191131591797 183.73648071289062 184.5948944091797 L 183.69741821289062 185.0245819091797 Q 183.67788696289062 185.2784881591797 183.61929321289062 185.8546600341797 Q 183.56069946289062 186.4308319091797 183.49234008789062 187.1730194091797 Q 183.42398071289062 187.9152069091797 183.35562133789062 188.7355194091797 Q 183.28726196289062 189.5558319091797 183.21890258789062 190.2980194091797 Q 183.15054321289062 191.0402069091797 183.10171508789062 191.6066131591797 Q 183.05288696289062 192.1730194091797 183.03335571289062 192.4073944091797 Z M 199.83897399902344 190.3175506591797 Q 200.07334899902344 187.6417694091797 200.21983337402344 185.0245819091797 Q 200.36631774902344 182.4073944091797 200.54209899902344 179.6534881591797 Q 200.58116149902344 179.0089569091797 200.66905212402344 178.7648162841797 Q 200.75694274902344 178.5206756591797 201.10850524902344 178.4425506591797 Q 202.92491149902344 178.1105194091797 204.75108337402344 177.7687225341797 Q 206.57725524902344 177.4269256591797 208.41319274902344 176.8605194091797 Q 208.47178649902344 176.8409881591797 208.58897399902344 176.8409881591797 Q 208.80381774902344 176.8409881591797 208.80381774902344 177.0363006591797 L 206.26475524902344 204.9269256591797 L 206.26475524902344 205.2589569091797 Q 206.26475524902344 205.4347381591797 206.12803649902344 205.5421600341797 Q 205.99131774902344 205.6495819091797 205.48350524902344 205.7863006591797 L 200.36631774902344 207.6613006591797 Q 200.15147399902344 207.7589569091797 199.79991149902344 207.8663787841797 Q 199.44834899902344 207.9738006591797 199.11631774902344 207.9738006591797 Q 198.84288024902344 207.9738006591797 198.63780212402344 207.8370819091797 Q 198.43272399902344 207.7003631591797 198.43272399902344 207.3683319091797 L 198.43272399902344 207.2511444091797 Q 198.58897399902344 205.2784881591797 198.73545837402344 203.3937225341797 Q 198.88194274902344 201.5089569091797 199.04795837402344 199.4972381591797 Q 199.21397399902344 197.4855194091797 199.40928649902344 195.2394256591797 Q 199.60459899902344 192.9933319091797 199.83897399902344 190.3175506591797 Z M 230.58279418945312 202.9152069091797 Q 230.56326293945312 202.9933319091797 230.56326293945312 203.0616912841797 Q 230.56326293945312 203.1300506591797 230.56326293945312 203.1886444091797 Q 230.56326293945312 203.6769256591797 230.71951293945312 203.9991912841797 Q 230.87576293945312 204.3214569091797 231.06130981445312 204.5265350341797 Q 231.24685668945312 204.7316131591797 231.40310668945312 204.8585662841797 Q 231.55935668945312 204.9855194091797 231.55935668945312 205.0831756591797 Q 231.55935668945312 205.3566131591797 230.97341918945312 205.5909881591797 L 225.71951293945312 207.8370819091797 Q 225.69998168945312 207.8566131591797 225.58279418945312 207.8566131591797 Q 225.42654418945312 207.8566131591797 225.27029418945312 207.5831756591797 Q 225.11404418945312 207.3097381591797 224.96755981445312 206.8898162841797 Q 224.82107543945312 206.4698944091797 224.69412231445312 205.9913787841797 Q 224.56716918945312 205.5128631591797 224.46951293945312 205.1027069091797 Q 223.23904418945312 206.5284881591797 221.81326293945312 207.1925506591797 Q 220.38748168945312 207.8566131591797 218.98123168945312 207.8566131591797 Q 217.34060668945312 207.8566131591797 215.77810668945312 207.1339569091797 Q 214.21560668945312 206.4113006591797 213.00466918945312 205.0734100341797 Q 211.79373168945312 203.7355194091797 211.06130981445312 201.8409881591797 Q 210.32888793945312 199.9464569091797 210.32888793945312 197.5831756591797 Q 210.32888793945312 194.7902069091797 211.13943481445312 192.4855194091797 Q 211.94998168945312 190.1808319091797 213.33670043945312 188.5206756591797 Q 214.72341918945312 186.8605194091797 216.56912231445312 185.9523162841797 Q 218.41482543945312 185.0441131591797 220.48513793945312 185.0441131591797 Q 221.94998168945312 185.0441131591797 223.25857543945312 185.6398162841797 Q 224.56716918945312 186.2355194091797 225.73904418945312 187.1730194091797 Q 225.85623168945312 186.5870819091797 225.87576293945312 186.2355194091797 Q 225.89529418945312 185.8839569091797 225.96365356445312 185.6886444091797 Q 226.03201293945312 185.4933319091797 226.22732543945312 185.4249725341797 Q 226.42263793945312 185.3566131591797 226.87185668945312 185.3175506591797 Q 228.27810668945312 185.1222381591797 229.67459106445312 184.9562225341797 Q 231.07107543945312 184.7902069091797 232.59451293945312 184.7120819091797 Z M 224.74295043945312 195.5519256591797 Q 224.93826293945312 194.4386444091797 225.00662231445312 193.4523162841797 Q 225.07498168945312 192.4659881591797 225.11404418945312 191.6456756591797 Q 224.80154418945312 191.4113006591797 224.44021606445312 191.1573944091797 Q 224.07888793945312 190.9034881591797 223.65896606445312 190.6788787841797 Q 223.23904418945312 190.4542694091797 222.78005981445312 190.3175506591797 Q 222.32107543945312 190.1808319091797 221.81326293945312 190.1808319091797 Q 220.75857543945312 190.1808319091797 220.04568481445312 190.8644256591797 Q 219.33279418945312 191.5480194091797 218.89334106445312 192.5441131591797 Q 218.45388793945312 193.5402069091797 218.26834106445312 194.6534881591797 Q 218.08279418945312 195.7667694091797 218.08279418945312 196.6261444091797 Q 218.08279418945312 199.7120819091797 218.89334106445312 201.1476287841797 Q 219.70388793945312 202.5831756591797 221.14920043945312 202.5831756591797 Q 221.73513793945312 202.5831756591797 222.45779418945312 202.2511444091797 Q 223.18045043945312 201.9191131591797 223.92263793945312 201.3331756591797 Z M 234.61338806152344 197.3097381591797 Q 234.61338806152344 194.7511444091797 235.56065368652344 192.5148162841797 Q 236.50791931152344 190.2784881591797 238.17784118652344 188.6183319091797 Q 239.84776306152344 186.9581756591797 242.12315368652344 186.0011444091797 Q 244.39854431152344 185.0441131591797 247.07432556152344 185.0441131591797 Q 248.89073181152344 185.0441131591797 250.17979431152344 185.3370819091797 Q 251.46885681152344 185.6300506591797 252.28916931152344 185.9913787841797 Q 253.10948181152344 186.3527069091797 253.49034118652344 186.6554412841797 Q 253.87120056152344 186.9581756591797 253.87120056152344 186.9777069091797 Q 253.87120056152344 187.0948944091797 253.78330993652344 187.6320037841797 Q 253.69541931152344 188.1691131591797 253.58799743652344 188.8820037841797 Q 253.48057556152344 189.5948944091797 253.39268493652344 190.3468475341797 Q 253.30479431152344 191.0988006591797 253.30479431152344 191.6456756591797 Q 253.30479431152344 191.7433319091797 253.24620056152344 191.8605194091797 Q 253.18760681152344 191.9777069091797 252.93370056152344 191.9777069091797 Q 252.69932556152344 191.9777069091797 252.25010681152344 191.8116912841797 Q 251.80088806152344 191.6456756591797 251.14659118652344 191.4503631591797 Q 250.49229431152344 191.2550506591797 249.64268493652344 191.0890350341797 Q 248.79307556152344 190.9230194091797 247.75791931152344 190.9230194091797 Q 246.46885681152344 190.9230194091797 245.43370056152344 191.3820037841797 Q 244.39854431152344 191.8409881591797 243.65635681152344 192.6515350341797 Q 242.91416931152344 193.4620819091797 242.51377868652344 194.5753631591797 Q 242.11338806152344 195.6886444091797 242.11338806152344 196.9777069091797 Q 242.11338806152344 198.3253631591797 242.53330993652344 199.2726287841797 Q 242.95323181152344 200.2198944091797 243.65635681152344 200.8155975341797 Q 244.35948181152344 201.4113006591797 245.27745056152344 201.6847381591797 Q 246.19541931152344 201.9581756591797 247.21104431152344 201.9581756591797 Q 248.38291931152344 201.9581756591797 249.57432556152344 201.6359100341797 Q 250.76573181152344 201.3136444091797 251.82041931152344 200.7277069091797 Q 251.85948181152344 200.7081756591797 251.97666931152344 200.7081756591797 Q 252.07432556152344 200.7081756591797 252.12315368652344 200.8058319091797 Q 252.17198181152344 200.9034881591797 252.17198181152344 201.1769256591797 Q 252.17198181152344 201.8019256591797 252.17198181152344 202.6905975341797 Q 252.17198181152344 203.5792694091797 252.16221618652344 204.3898162841797 Q 252.15245056152344 205.2003631591797 252.13291931152344 205.7667694091797 Q 252.11338806152344 206.3331756591797 252.09385681152344 206.3331756591797 Q 251.39073181152344 206.8019256591797 250.57041931152344 207.0948944091797 Q 249.75010681152344 207.3878631591797 248.88096618652344 207.5636444091797 Q 248.01182556152344 207.7394256591797 247.13291931152344 207.7980194091797 Q 246.25401306152344 207.8566131591797 245.43370056152344 207.8566131591797 Q 243.14854431152344 207.8566131591797 241.17588806152344 207.0948944091797 Q 239.20323181152344 206.3331756591797 237.74815368652344 204.9464569091797 Q 236.29307556152344 203.5597381591797 235.45323181152344 201.6163787841797 Q 234.61338806152344 199.6730194091797 234.61338806152344 197.3097381591797 Z M 266.9572448730469 185.0441131591797 Q 268.8127136230469 185.0441131591797 270.3263854980469 185.7374725341797 Q 271.8400573730469 186.4308319091797 272.9240417480469 187.5343475341797 Q 274.0080261230469 188.6378631591797 274.5939636230469 190.0050506591797 Q 275.1799011230469 191.3722381591797 275.1799011230469 192.7394256591797 Q 275.1799011230469 193.9503631591797 274.4377136230469 195.1710662841797 Q 273.6955261230469 196.3917694091797 272.3576354980469 197.3683319091797 Q 271.0197448730469 198.3448944091797 269.1447448730469 198.9503631591797 Q 267.2697448730469 199.5558319091797 265.0236511230469 199.5558319091797 Q 263.8517761230469 199.5558319091797 262.5627136230469 199.3214569091797 Q 262.6408386230469 200.1613006591797 263.0509948730469 200.7667694091797 Q 263.4611511230469 201.3722381591797 264.0861511230469 201.7628631591797 Q 264.7111511230469 202.1534881591797 265.5021667480469 202.3390350341797 Q 266.2931823730469 202.5245819091797 267.1330261230469 202.5245819091797 Q 268.0705261230469 202.5245819091797 268.9396667480469 202.3585662841797 Q 269.8088073730469 202.1925506591797 270.6095886230469 201.9191131591797 Q 271.4103698730469 201.6456756591797 272.1525573730469 201.3136444091797 Q 272.8947448730469 200.9816131591797 273.5588073730469 200.6495819091797 Q 273.7345886230469 200.6105194091797 273.8615417480469 200.5812225341797 Q 273.9884948730469 200.5519256591797 274.1056823730469 200.5519256591797 Q 274.1056823730469 200.5519256591797 274.0959167480469 200.8644256591797 Q 274.0861511230469 201.1769256591797 274.0861511230469 201.7433319091797 Q 274.0861511230469 202.3097381591797 274.0763854980469 203.1105194091797 Q 274.0666198730469 203.9113006591797 274.0470886230469 204.8878631591797 Q 274.1056823730469 204.9855194091797 274.1252136230469 205.0831756591797 Q 274.1447448730469 205.1808319091797 274.1447448730469 205.2394256591797 Q 274.1447448730469 205.4738006591797 273.7150573730469 205.7472381591797 Q 273.2853698730469 206.0206756591797 272.5920104980469 206.3136444091797 Q 271.8986511230469 206.6066131591797 271.0099792480469 206.8800506591797 Q 270.1213073730469 207.1534881591797 269.2033386230469 207.3780975341797 Q 268.2853698730469 207.6027069091797 267.4259948730469 207.7296600341797 Q 266.5666198730469 207.8566131591797 265.9220886230469 207.8566131591797 Q 263.8127136230469 207.8566131591797 261.8302917480469 207.1241912841797 Q 259.8478698730469 206.3917694091797 258.3146667480469 205.0245819091797 Q 256.7814636230469 203.6573944091797 255.86349487304688 201.7042694091797 Q 254.94552612304688 199.7511444091797 254.94552612304688 197.3097381591797 Q 254.94552612304688 194.7511444091797 255.82443237304688 192.5148162841797 Q 256.7033386230469 190.2784881591797 258.2951354980469 188.6183319091797 Q 259.8869323730469 186.9581756591797 262.0939636230469 186.0011444091797 Q 264.3009948730469 185.0441131591797 266.9572448730469 185.0441131591797 Z M 266.7228698730469 190.2394256591797 Q 265.9220886230469 190.2394256591797 265.2482604980469 190.5812225341797 Q 264.5744323730469 190.9230194091797 264.0177917480469 191.5577850341797 Q 263.4611511230469 192.1925506591797 263.0509948730469 193.0812225341797 Q 262.6408386230469 193.9698944091797 262.3869323730469 195.0441131591797 Q 264.3986511230469 194.6925506591797 265.7267761230469 194.3019256591797 Q 267.0549011230469 193.9113006591797 267.8556823730469 193.5109100341797 Q 268.6564636230469 193.1105194091797 268.9884948730469 192.7101287841797 Q 269.3205261230469 192.3097381591797 269.3205261230469 191.9386444091797 Q 269.3205261230469 191.5870819091797 269.0568542480469 191.2745819091797 Q 268.7931823730469 190.9620819091797 268.4025573730469 190.7277069091797 Q 268.0119323730469 190.4933319091797 267.5529479980469 190.3663787841797 Q 267.0939636230469 190.2394256591797 266.7228698730469 190.2394256591797 Z" transform="matrix(1, 0, 0, 1, 0, 0)" style="fill: none; stroke: rgb(255, 255, 255); stroke-width: 2px; white-space: pre;"/>
</svg>