<?xml version="1.0" encoding="utf-8"?>
<svg viewBox="11.619 0 329.78 497.128" xmlns="http://www.w3.org/2000/svg">
  <path style="stroke: rgb(60, 84, 34); stroke-width: 4px; fill: rgb(192, 245, 108);" d="M 143.328 24.144 C 63.075 32.942 34.257 114.518 31.698 252.496 C 29.14 390.475 63.95 462.379 137.138 478.373 C 210.326 494.367 336.923 429.483 329.421 349.165 C 321.917 268.845 304.749 262.299 269.471 182.217 C 234.191 102.135 202.99 17.604 143.328 24.144 Z"/>
  <path style="fill: rgb(60, 84, 34);" d="M 143.781 24.546 C 143.781 24.546 30.572 42.929 79.868 262.057 C 129.167 481.185 227.466 467.086 227.466 467.086 C 227.466 467.086 73.507 539.212 36.438 345.265 C 2.105 12.37 143.781 24.546 143.781 24.546 Z"/>
  <path d="M 271.649 264.942 C 283.537 316.523 251.306 381.351 223.377 381.351 C 195.448 381.351 162.591 341.184 151.538 286.732 C 140.486 232.28 161.667 169.552 189.595 169.552 C 217.524 169.552 259.764 213.362 271.649 264.942 Z" style="fill: rgb(156, 103, 18);"/>
</svg>